<mxfile host="app.diagrams.net" modified="2024-03-20T21:21:50.317Z" agent="Mozilla/5.0 (Windows NT 10.0; Win64; x64) AppleWebKit/537.36 (KHTML, like Gecko) Chrome/122.0.0.0 Safari/537.36 Edg/122.0.0.0" etag="tPbYN1VKhqORVWSQZPYJ" version="24.0.7" type="device">
  <diagram name="1 oldal" id="DJFRvh48BGnQQodWwq8x">
    <mxGraphModel dx="1631" dy="1025" grid="1" gridSize="10" guides="1" tooltips="1" connect="1" arrows="1" fold="1" page="1" pageScale="1" pageWidth="827" pageHeight="1169" math="0" shadow="0">
      <root>
        <mxCell id="0" />
        <mxCell id="1" parent="0" />
        <mxCell id="JkGa_85w-0cmgamtiCLm-1" value="&lt;b&gt;Prometheus&lt;/b&gt;" style="rounded=1;whiteSpace=wrap;html=1;" parent="1" vertex="1">
          <mxGeometry x="150" y="710" width="570" height="170" as="geometry" />
        </mxCell>
        <mxCell id="JkGa_85w-0cmgamtiCLm-12" style="edgeStyle=orthogonalEdgeStyle;rounded=0;orthogonalLoop=1;jettySize=auto;html=1;exitX=0.5;exitY=0;exitDx=0;exitDy=0;entryX=0.5;entryY=1;entryDx=0;entryDy=0;strokeWidth=2;" parent="1" source="JkGa_85w-0cmgamtiCLm-17" target="JkGa_85w-0cmgamtiCLm-3" edge="1">
          <mxGeometry relative="1" as="geometry">
            <mxPoint x="330" y="515" as="sourcePoint" />
          </mxGeometry>
        </mxCell>
        <mxCell id="JkGa_85w-0cmgamtiCLm-13" style="edgeStyle=orthogonalEdgeStyle;rounded=0;orthogonalLoop=1;jettySize=auto;html=1;exitX=0.5;exitY=0;exitDx=0;exitDy=0;entryX=0.5;entryY=1;entryDx=0;entryDy=0;strokeWidth=2;" parent="1" source="JkGa_85w-0cmgamtiCLm-3" target="JkGa_85w-0cmgamtiCLm-7" edge="1">
          <mxGeometry relative="1" as="geometry" />
        </mxCell>
        <mxCell id="JkGa_85w-0cmgamtiCLm-3" value="&lt;b&gt;Veracity Store&lt;br&gt;API (Fabric)&lt;/b&gt;&lt;br&gt;(storing the check results on a specified store)" style="rounded=0;whiteSpace=wrap;html=1;fillColor=#dae8fc;strokeColor=#6c8ebf;" parent="1" vertex="1">
          <mxGeometry x="240" y="360" width="180" height="80" as="geometry" />
        </mxCell>
        <mxCell id="JkGa_85w-0cmgamtiCLm-7" value="&lt;b&gt;Fablo REST&lt;/b&gt;" style="rounded=0;whiteSpace=wrap;html=1;" parent="1" vertex="1">
          <mxGeometry x="240" y="255" width="180" height="40" as="geometry" />
        </mxCell>
        <mxCell id="JkGa_85w-0cmgamtiCLm-8" value="" style="group;fillColor=none;strokeColor=none;" parent="1" vertex="1" connectable="0">
          <mxGeometry x="150" y="80" width="570" height="150" as="geometry" />
        </mxCell>
        <mxCell id="JkGa_85w-0cmgamtiCLm-4" value="&lt;b&gt;Fabric Network&lt;/b&gt;&lt;div&gt;&lt;b&gt;&lt;br&gt;&lt;/b&gt;&lt;/div&gt;&lt;div&gt;&lt;b&gt;&lt;br&gt;&lt;/b&gt;&lt;/div&gt;&lt;div&gt;&lt;b&gt;&lt;br&gt;&lt;/b&gt;&lt;/div&gt;&lt;div&gt;&lt;b&gt;&lt;br&gt;&lt;/b&gt;&lt;/div&gt;&lt;div&gt;&lt;b&gt;&lt;br&gt;&lt;/b&gt;&lt;/div&gt;" style="rounded=1;whiteSpace=wrap;html=1;" parent="JkGa_85w-0cmgamtiCLm-8" vertex="1">
          <mxGeometry width="570" height="150" as="geometry" />
        </mxCell>
        <mxCell id="JkGa_85w-0cmgamtiCLm-6" value="&lt;b&gt;Veracity Store&lt;br&gt;Chaincode&lt;/b&gt;" style="shape=parallelogram;perimeter=parallelogramPerimeter;whiteSpace=wrap;html=1;fixedSize=1;size=10;fillColor=#dae8fc;strokeColor=#6c8ebf;" parent="JkGa_85w-0cmgamtiCLm-8" vertex="1">
          <mxGeometry x="120" y="70" width="120" height="60" as="geometry" />
        </mxCell>
        <mxCell id="JkGa_85w-0cmgamtiCLm-11" value="" style="endArrow=classic;html=1;rounded=0;entryX=0.5;entryY=1;entryDx=0;entryDy=0;strokeWidth=2;exitX=0.318;exitY=0.012;exitDx=0;exitDy=0;exitPerimeter=0;" parent="1" source="JkGa_85w-0cmgamtiCLm-1" target="JkGa_85w-0cmgamtiCLm-17" edge="1">
          <mxGeometry width="50" height="50" relative="1" as="geometry">
            <mxPoint x="390" y="470" as="sourcePoint" />
            <mxPoint x="330" y="600" as="targetPoint" />
          </mxGeometry>
        </mxCell>
        <mxCell id="JkGa_85w-0cmgamtiCLm-14" style="edgeStyle=orthogonalEdgeStyle;rounded=0;orthogonalLoop=1;jettySize=auto;html=1;exitX=0.5;exitY=0;exitDx=0;exitDy=0;entryX=0.5;entryY=1;entryDx=0;entryDy=0;strokeWidth=2;" parent="1" source="JkGa_85w-0cmgamtiCLm-7" target="JkGa_85w-0cmgamtiCLm-6" edge="1">
          <mxGeometry relative="1" as="geometry" />
        </mxCell>
        <mxCell id="JkGa_85w-0cmgamtiCLm-17" value="&lt;b&gt;Veracity Checker&lt;br&gt;API&lt;br&gt;&lt;/b&gt;(making the checks and shares them by the store api)" style="rounded=0;whiteSpace=wrap;html=1;fillColor=#dae8fc;strokeColor=#6c8ebf;" parent="1" vertex="1">
          <mxGeometry x="240" y="574" width="180" height="85" as="geometry" />
        </mxCell>
        <mxCell id="JkGa_85w-0cmgamtiCLm-21" value="&lt;b&gt;swagger.json&lt;/b&gt;&lt;br&gt;(not specific to the store)" style="shape=note;whiteSpace=wrap;html=1;backgroundOutline=1;darkOpacity=0.05;fillColor=#d5e8d4;strokeColor=#82b366;" parent="1" vertex="1">
          <mxGeometry x="475" y="480" width="140" height="80" as="geometry" />
        </mxCell>
        <mxCell id="JkGa_85w-0cmgamtiCLm-22" value="&lt;b&gt;swagger.json&lt;/b&gt;" style="shape=note;whiteSpace=wrap;html=1;backgroundOutline=1;darkOpacity=0.05;fillColor=#d5e8d4;strokeColor=#82b366;" parent="1" vertex="1">
          <mxGeometry x="475" y="577.25" width="140" height="78.5" as="geometry" />
        </mxCell>
        <mxCell id="JkGa_85w-0cmgamtiCLm-23" style="edgeStyle=orthogonalEdgeStyle;rounded=0;orthogonalLoop=1;jettySize=auto;html=1;exitX=1;exitY=0.5;exitDx=0;exitDy=0;entryX=0.5;entryY=0;entryDx=0;entryDy=0;entryPerimeter=0;dashed=1;endArrow=none;endFill=0;" parent="1" source="JkGa_85w-0cmgamtiCLm-3" target="JkGa_85w-0cmgamtiCLm-21" edge="1">
          <mxGeometry relative="1" as="geometry" />
        </mxCell>
        <mxCell id="JkGa_85w-0cmgamtiCLm-24" style="edgeStyle=orthogonalEdgeStyle;rounded=0;orthogonalLoop=1;jettySize=auto;html=1;exitX=1;exitY=0.5;exitDx=0;exitDy=0;entryX=0;entryY=0.5;entryDx=0;entryDy=0;entryPerimeter=0;dashed=1;endArrow=none;endFill=0;" parent="1" source="JkGa_85w-0cmgamtiCLm-17" target="JkGa_85w-0cmgamtiCLm-22" edge="1">
          <mxGeometry relative="1" as="geometry">
            <mxPoint x="430" y="494" as="sourcePoint" />
            <mxPoint x="485" y="494" as="targetPoint" />
          </mxGeometry>
        </mxCell>
        <mxCell id="JkGa_85w-0cmgamtiCLm-27" style="edgeStyle=orthogonalEdgeStyle;rounded=0;orthogonalLoop=1;jettySize=auto;html=1;exitX=0;exitY=1;exitDx=0;exitDy=0;exitPerimeter=0;entryX=0.75;entryY=0;entryDx=0;entryDy=0;" parent="1" source="JkGa_85w-0cmgamtiCLm-25" target="JkGa_85w-0cmgamtiCLm-3" edge="1">
          <mxGeometry relative="1" as="geometry" />
        </mxCell>
        <mxCell id="JkGa_85w-0cmgamtiCLm-28" value="api generated" style="edgeLabel;html=1;align=center;verticalAlign=middle;resizable=0;points=[];" parent="JkGa_85w-0cmgamtiCLm-27" vertex="1" connectable="0">
          <mxGeometry x="0.1419" y="1" relative="1" as="geometry">
            <mxPoint x="16" y="-1" as="offset" />
          </mxGeometry>
        </mxCell>
        <mxCell id="JkGa_85w-0cmgamtiCLm-25" value="&lt;b&gt;swagger.json&lt;/b&gt;&lt;div&gt;(not specific to chaincode or channel)&lt;/div&gt;" style="shape=note;whiteSpace=wrap;html=1;backgroundOutline=1;darkOpacity=0.05;fillColor=#d5e8d4;strokeColor=#82b366;" parent="1" vertex="1">
          <mxGeometry x="475" y="235" width="140" height="80" as="geometry" />
        </mxCell>
        <mxCell id="JkGa_85w-0cmgamtiCLm-26" style="edgeStyle=orthogonalEdgeStyle;rounded=0;orthogonalLoop=1;jettySize=auto;html=1;exitX=1;exitY=0.5;exitDx=0;exitDy=0;entryX=0;entryY=0.5;entryDx=0;entryDy=0;entryPerimeter=0;dashed=1;endArrow=none;endFill=0;" parent="1" source="JkGa_85w-0cmgamtiCLm-7" target="JkGa_85w-0cmgamtiCLm-25" edge="1">
          <mxGeometry relative="1" as="geometry">
            <mxPoint x="430" y="435" as="sourcePoint" />
            <mxPoint x="485" y="435" as="targetPoint" />
          </mxGeometry>
        </mxCell>
        <mxCell id="JkGa_85w-0cmgamtiCLm-29" style="edgeStyle=orthogonalEdgeStyle;rounded=0;orthogonalLoop=1;jettySize=auto;html=1;entryX=0.794;entryY=0.012;entryDx=0;entryDy=0;entryPerimeter=0;exitX=0;exitY=0.5;exitDx=0;exitDy=0;exitPerimeter=0;" parent="1" source="JkGa_85w-0cmgamtiCLm-21" target="JkGa_85w-0cmgamtiCLm-17" edge="1">
          <mxGeometry relative="1" as="geometry">
            <mxPoint x="400" y="510" as="sourcePoint" />
            <mxPoint x="385" y="535" as="targetPoint" />
            <Array as="points">
              <mxPoint x="383" y="520" />
            </Array>
          </mxGeometry>
        </mxCell>
        <mxCell id="JkGa_85w-0cmgamtiCLm-30" value="api generated" style="edgeLabel;html=1;align=center;verticalAlign=middle;resizable=0;points=[];" parent="JkGa_85w-0cmgamtiCLm-29" vertex="1" connectable="0">
          <mxGeometry x="0.1419" y="1" relative="1" as="geometry">
            <mxPoint x="39" y="-1" as="offset" />
          </mxGeometry>
        </mxCell>
        <mxCell id="NLLSxikQFvZxFkzUhgwA-1" value="" style="endArrow=none;dashed=1;html=1;strokeWidth=3;rounded=0;fillColor=#fff2cc;strokeColor=#d6b656;" edge="1" parent="1">
          <mxGeometry width="50" height="50" relative="1" as="geometry">
            <mxPoint x="140" y="460" as="sourcePoint" />
            <mxPoint x="770" y="460" as="targetPoint" />
          </mxGeometry>
        </mxCell>
        <mxCell id="NLLSxikQFvZxFkzUhgwA-3" value="&lt;font color=&quot;#d6b656&quot; style=&quot;font-size: 14px;&quot;&gt;Fabric specific&lt;/font&gt;" style="edgeLabel;html=1;align=center;verticalAlign=middle;resizable=0;points=[];" vertex="1" connectable="0" parent="NLLSxikQFvZxFkzUhgwA-1">
          <mxGeometry x="0.6921" y="1" relative="1" as="geometry">
            <mxPoint x="7" y="-19" as="offset" />
          </mxGeometry>
        </mxCell>
      </root>
    </mxGraphModel>
  </diagram>
</mxfile>
